# xmcd CD database file
#
# Track frame offsets:
#	150
#	24997
#	25861
#	55294
#	56146
#	83690
#	84426
#	107096
#	107942
#	132008
#	133011
#	155830
#	156707
#	179225
#	180612
#	192984
#	193843
#	211199
#	211964
#
# Disc length: 3190 seconds
#
# Revision: 0
# Processed by: cddbd v1.5.2PL0 Copyright (c) Steve Scherf et al.
# Submitted via: CDex 1.51
#
DISCID=180c7413
DTITLE=Entribu - Barnakustica
DYEAR=1900
DGENRE=New Age
TTITLE0=Gino Song (Doble)
TTITLE1=Aire
TTITLE2=Tribulona
TTITLE3=Mmm
TTITLE4=Vientre
TTITLE5=Mister No
TTITLE6=Arabico
TTITLE7=Non So
TTITLE8=Afrobrasileiro Tecno
TTITLE9=Calle
TTITLE10=Barrio Gotico
TTITLE11=En Medico
TTITLE12=Clasico (Zoreya)
TTITLE13=Intermezza
TTITLE14=San lu
TTITLE15=Oye
TTITLE16=Barnanina
TTITLE17=Casi
TTITLE18=Vitale
EXTD=
EXTT0=
EXTT1=
EXTT2=
EXTT3=
EXTT4=
EXTT5=
EXTT6=
EXTT7=
EXTT8=
EXTT9=
EXTT10=
EXTT11=
EXTT12=
EXTT13=
EXTT14=
EXTT15=
EXTT16=
EXTT17=
EXTT18=
PLAYORDER=
